<?xml version="1.0" encoding="UTF-8" standalone="no"?>
<!-- Generator: Adobe Illustrator 16.0.0, SVG Export Plug-In . SVG Version: 6.00 Build 0)  -->

<svg
   xmlns:dc="http://purl.org/dc/elements/1.1/"
   xmlns:cc="http://creativecommons.org/ns#"
   xmlns:rdf="http://www.w3.org/1999/02/22-rdf-syntax-ns#"
   xmlns:svg="http://www.w3.org/2000/svg"
   xmlns="http://www.w3.org/2000/svg"
   xmlns:sodipodi="http://sodipodi.sourceforge.net/DTD/sodipodi-0.dtd"
   xmlns:inkscape="http://www.inkscape.org/namespaces/inkscape"
   version="1.1"
   id="Capa_1"
   x="0px"
   y="0px"
   width="373.008px"
   height="373.008px"
   viewBox="0 0 373.008 373.008"
   style="enable-background:new 0 0 373.008 373.008;"
   xml:space="preserve"
   inkscape:version="0.48.4 r9939"
   sodipodi:docname="ba_eject.svg"
   inkscape:export-filename="/home/localuser/ba_scripts/python/lsi_ui/image/ba_eject.png"
   inkscape:export-xdpi="90"
   inkscape:export-ydpi="90"><metadata
     id="metadata3807"><rdf:RDF><cc:Work
         rdf:about=""><dc:format>image/svg+xml</dc:format><dc:type
           rdf:resource="http://purl.org/dc/dcmitype/StillImage" /><dc:title></dc:title></cc:Work></rdf:RDF></metadata><defs
     id="defs3805" /><sodipodi:namedview
     pagecolor="#ffffff"
     bordercolor="#666666"
     borderopacity="1"
     objecttolerance="10"
     gridtolerance="10"
     guidetolerance="10"
     inkscape:pageopacity="0"
     inkscape:pageshadow="2"
     inkscape:window-width="640"
     inkscape:window-height="480"
     id="namedview3803"
     showgrid="false"
     inkscape:zoom="0.63269421"
     inkscape:cx="186.504"
     inkscape:cy="186.504"
     inkscape:window-x="126"
     inkscape:window-y="198"
     inkscape:window-maximized="0"
     inkscape:current-layer="Capa_1" /><g
     id="g3768"><g
       id="Layer_8_30_"><path
         d="M353.703,245.49H19.304c-6.892,0-13.27-3.673-16.714-9.653c-3.453-5.965-3.453-13.336,0-19.305L169.787,16.161    c3.444-5.973,9.821-9.655,16.713-9.655c6.893,0,13.274,3.682,16.717,9.655l167.21,200.372c1.718,2.987,2.581,6.314,2.581,9.657    c0,3.333-0.863,6.659-2.581,9.659C366.972,241.817,360.594,245.49,353.703,245.49z M372.813,358.782v-63.705    c0-4.263-3.46-7.722-7.729-7.722H7.917c-4.264,0-7.721,3.459-7.721,7.722v63.705c0,4.264,3.457,7.72,7.721,7.72h357.167    C369.353,366.508,372.813,363.046,372.813,358.782z"
         id="path3771" /></g></g><g
     id="g3773" /><g
     id="g3775" /><g
     id="g3777" /><g
     id="g3779" /><g
     id="g3781" /><g
     id="g3783" /><g
     id="g3785" /><g
     id="g3787" /><g
     id="g3789" /><g
     id="g3791" /><g
     id="g3793" /><g
     id="g3795" /><g
     id="g3797" /><g
     id="g3799" /><g
     id="g3801" /></svg>